<svg width="176" height="16" viewBox="0 0 176 16" fill="none" xmlns="http://www.w3.org/2000/svg">
<path d="M158.326 15.5675V2.1289C158.326 1.35274 158.432 0.853776 158.644 0.632015C158.855 0.38808 159.354 0.266113 160.138 0.266113H165.065L171.995 10.0457L172.185 10.8108V0.266113H176C175.958 0.310465 175.926 0.454608 175.905 0.698544C175.905 0.920304 175.905 1.17533 175.905 1.46362C175.905 1.72973 175.905 1.97366 175.905 2.19542V13.9376C175.905 14.6694 175.756 15.124 175.46 15.3014C175.163 15.4788 174.612 15.5675 173.807 15.5675H169.325L162.236 5.58835L162.077 4.75675V15.5675H158.326Z" fill="#0088CC"/>
<path d="M117.629 0.266113H135.176V3.16008H129.041V13.7713C129.041 14.4809 128.935 14.9577 128.723 15.2016C128.511 15.4456 128.034 15.5675 127.293 15.5675H123.796V3.16008H117.629V0.266113Z" fill="#0088CC"/>
<path fill-rule="evenodd" clip-rule="evenodd" d="M141.677 15.4345C142.864 15.6784 144.305 15.8004 146.001 15.8004C147.675 15.8004 149.105 15.6895 150.292 15.4677C151.5 15.2238 152.486 14.8136 153.249 14.237C154.011 13.6382 154.573 12.8288 154.933 11.8087C155.294 10.7886 155.474 9.49132 155.474 7.91682C155.474 6.34233 155.294 5.04504 154.933 4.02494C154.594 3.00485 154.043 2.20651 153.28 1.62993C152.539 1.03118 151.574 0.609839 150.388 0.365904C149.201 0.121968 147.77 0 146.096 0C144.422 0 142.981 0.121968 141.773 0.365904C140.586 0.609839 139.601 1.03118 138.817 1.62993C138.054 2.20651 137.492 3.00485 137.132 4.02494C136.771 5.02286 136.591 6.32015 136.591 7.91682C136.591 9.46914 136.761 10.7554 137.1 11.7754C137.46 12.7955 138.011 13.605 138.753 14.2037C139.516 14.7803 140.491 15.1905 141.677 15.4345ZM149.89 2.40063H142.18C141.984 2.40063 141.64 2.40063 141.345 2.5943C141.001 2.69114 140.756 2.93324 140.609 3.22375C140.461 3.51427 140.363 3.80478 140.412 4.14372C140.412 4.4536 140.538 4.67052 140.638 4.84405C140.664 4.88743 140.687 4.92811 140.707 4.96684L145.47 13.1981C145.618 13.3918 145.814 13.4886 146.01 13.4886C146.256 13.4886 146.452 13.3918 146.551 13.1981L151.412 4.96684C151.609 4.67633 151.658 4.38581 151.658 4.0953C151.658 3.75636 151.56 3.46585 151.412 3.22375C151.363 3.22375 151.363 3.17533 151.363 3.17533C151.265 2.98166 151.068 2.73956 150.725 2.5943C150.43 2.44905 150.185 2.40063 149.89 2.40063ZM142.18 3.56269H145.421V10.6319L141.738 4.33739C141.696 4.25554 141.664 4.19963 141.64 4.1587C141.607 4.10279 141.591 4.07483 141.591 4.04688C141.591 3.95004 141.591 3.8532 141.64 3.80478C141.689 3.70794 141.738 3.65953 141.836 3.61111C141.885 3.56269 141.984 3.56269 142.18 3.56269ZM146.6 10.6803V3.61111H149.841C149.988 3.61111 150.086 3.61111 150.185 3.65953L150.234 3.70794C150.264 3.70794 150.276 3.72644 150.292 3.752C150.302 3.76779 150.313 3.78629 150.332 3.80478C150.381 3.8532 150.381 3.95004 150.381 4.04688C150.381 4.14372 150.381 4.24056 150.332 4.33739L146.6 10.6803Z" fill="#0088CC"/>
<path d="M98.9407 0.266113H116.488V3.16008H110.353V13.7713C110.353 14.4809 110.247 14.9577 110.035 15.2016C109.823 15.4456 109.346 15.5675 108.604 15.5675H105.108V3.16008H98.9407V0.266113Z" fill="white"/>
<path d="M80.9651 15.5675V1.99584C80.9651 1.28621 81.0816 0.820512 81.3148 0.598753C81.5479 0.376993 82.0035 0.266113 82.6817 0.266113H97.368V3.12681H86.1784V6.32015H96.3507V9.14759H86.1784V12.7068H97.368V15.5675H80.9651Z" fill="white"/>
<path d="M75.4333 16C74.8187 16 74.2465 15.9335 73.7167 15.8004C73.1869 15.6674 72.6995 15.4345 72.2544 15.1019C72.1061 14.9688 71.9153 14.7914 71.6822 14.5697C71.4491 14.3479 71.1948 14.104 70.9193 13.8379C70.6438 13.5496 70.3577 13.2613 70.061 12.973C69.7855 12.6847 69.5206 12.4075 69.2663 12.1414C69.012 11.8753 68.7789 11.6425 68.5669 11.4429C68.3126 11.1546 68.0901 10.9328 67.8994 10.7776C67.7298 10.6224 67.5073 10.456 67.2318 10.2786L66.3417 10.0458V15.5676H61.1284V1.92937C61.1284 1.57456 61.1602 1.27518 61.2238 1.03125C61.2874 0.78731 61.4251 0.598813 61.637 0.465757C61.8702 0.332702 62.2622 0.266175 62.8132 0.266175C63.4066 0.266175 63.9894 0.266175 64.5616 0.266175C65.155 0.266175 65.7484 0.266175 66.3417 0.266175C66.3417 0.598814 66.3417 1.00907 66.3417 1.49694C66.3417 1.96264 66.3417 2.4616 66.3417 2.99382C66.3417 3.50387 66.3417 4.00283 66.3417 4.4907C66.3417 4.95639 66.3417 5.34447 66.3417 5.65494L67.2318 5.45535C67.4226 5.38882 67.5815 5.30012 67.7087 5.18924C67.857 5.05619 68.0371 4.88986 68.2491 4.69028C68.5034 4.37982 68.853 4.01391 69.2981 3.59257C69.7431 3.14905 70.1988 2.70553 70.665 2.26201C71.1524 1.79632 71.5657 1.40824 71.9047 1.09777C72.3922 0.698606 72.922 0.432494 73.4942 0.299437C74.0876 0.166381 74.7869 0.0998535 75.5922 0.0998535C76.2068 0.0998535 76.7154 0.133118 77.1181 0.199646C77.5207 0.243998 77.9446 0.310527 78.3896 0.39923C78.3472 0.421406 78.2095 0.543374 77.9764 0.765134C77.7644 0.986893 77.5207 1.23083 77.2452 1.49694C76.9909 1.74088 76.7896 1.94046 76.6412 2.09569C75.8783 2.69444 75.073 3.32646 74.2253 3.99174C73.3776 4.65702 72.5511 5.3223 71.7458 5.98758C70.9617 6.65285 70.2517 7.29596 69.616 7.91689L69.6478 6.38674C70.1988 6.85244 70.8239 7.39575 71.5233 8.01668C72.2226 8.63761 72.975 9.31397 73.7803 10.0458C74.5856 10.7554 75.4121 11.4872 76.2598 12.2412C77.1287 12.9952 77.9975 13.7159 78.8664 14.4034C78.7605 14.5586 78.5485 14.7582 78.2307 15.0021C77.934 15.246 77.5525 15.4678 77.0863 15.6674C76.62 15.8892 76.069 16 75.4333 16Z" fill="white"/>
<path d="M40.9609 7.91689C40.9609 6.36457 41.1305 5.08945 41.4696 4.09153C41.8086 3.07143 42.3808 2.2731 43.1861 1.69652C43.9914 1.11995 45.0617 0.709693 46.3968 0.465757C47.7531 0.221821 49.4273 0.0998535 51.4194 0.0998535C52.2671 0.0998535 53.0618 0.133118 53.8035 0.199646C54.5664 0.243998 55.3611 0.332702 56.1877 0.465757C57.0777 0.576637 57.6605 0.798397 57.936 1.13104C58.2115 1.46368 58.3493 1.91828 58.3493 2.49486V4.19132C57.7347 3.94739 57.0142 3.7478 56.1877 3.59257C55.3823 3.43734 54.577 3.32646 53.7717 3.25993C52.9664 3.17123 52.2565 3.12688 51.6419 3.12688C50.3915 3.12688 49.3637 3.23776 48.5584 3.45952C47.7743 3.68128 47.2021 4.13588 46.8418 4.82334C46.4816 5.51079 46.3014 6.55306 46.3014 7.95015C46.3014 9.28071 46.4816 10.2897 46.8418 10.9772C47.2021 11.6646 47.8061 12.1303 48.6538 12.3743C49.5015 12.6182 50.6247 12.7402 52.0234 12.7402C52.6167 12.7402 53.2419 12.7069 53.8989 12.6404C54.577 12.5517 55.2764 12.4408 55.9969 12.3077C56.7387 12.1747 57.5228 12.0084 58.3493 11.8088V13.3722C58.3493 13.9044 58.2009 14.3479 57.9042 14.7027C57.6075 15.0354 57.0036 15.2682 56.0923 15.4013C55.287 15.5343 54.4817 15.623 53.6764 15.6674C52.8922 15.7117 52.0763 15.7339 51.2286 15.7339C49.2154 15.7339 47.5412 15.623 46.206 15.4013C44.8921 15.1573 43.8431 14.7471 43.059 14.1705C42.2961 13.5939 41.7557 12.8067 41.4378 11.8088C41.1199 10.7887 40.9609 9.49138 40.9609 7.91689Z" fill="white"/>
<path d="M29.5093 15.8004C27.8139 15.8004 26.3728 15.6784 25.186 15.4345C23.9992 15.1905 23.0244 14.7803 22.2615 14.2037C21.5197 13.605 20.9687 12.7955 20.6085 11.7754C20.2694 10.7554 20.0999 9.46914 20.0999 7.91682C20.0999 6.32015 20.28 5.02286 20.6403 4.02494C21.0005 3.00485 21.5621 2.20651 22.3251 1.62993C23.1092 1.03118 24.0946 0.609839 25.2814 0.365904C26.4894 0.121968 27.9304 0 29.6046 0C31.2788 0 32.7093 0.121968 33.8961 0.365904C35.0829 0.609839 36.0471 1.03118 36.7888 1.62993C37.5518 2.20651 38.1028 3.00485 38.4418 4.02494C38.8021 5.04504 38.9822 6.34233 38.9822 7.91682C38.9822 9.49132 38.8021 10.7886 38.4418 11.8087C38.0816 12.8288 37.52 13.6382 36.757 14.237C35.9941 14.8136 35.0087 15.2238 33.8007 15.4677C32.6139 15.6895 31.1835 15.8004 29.5093 15.8004ZM29.5411 12.9729C30.2404 12.9729 30.8444 12.9064 31.353 12.7734C31.8828 12.6181 32.3067 12.352 32.6245 11.975C32.9636 11.598 33.2073 11.088 33.3557 10.4449C33.5252 9.77961 33.61 8.93692 33.61 7.91682C33.61 6.87455 33.5252 6.03187 33.3557 5.38876C33.2073 4.72348 32.9636 4.21344 32.6245 3.85862C32.3067 3.48163 31.8828 3.2266 31.353 3.09355C30.8444 2.93832 30.2404 2.8607 29.5411 2.8607C28.8205 2.8607 28.1953 2.93832 27.6655 3.09355C27.1569 3.2266 26.7437 3.48163 26.4258 3.85862C26.1079 4.21344 25.8642 4.72348 25.6946 5.38876C25.5251 6.03187 25.4403 6.87455 25.4403 7.91682C25.4403 8.93692 25.5251 9.77961 25.6946 10.4449C25.8642 11.088 26.1079 11.598 26.4258 11.975C26.7437 12.352 27.1569 12.6181 27.6655 12.7734C28.1953 12.9064 28.8205 12.9729 29.5411 12.9729Z" fill="white"/>
<path d="M9.37762 10.4117C9.37762 10.4117 9.1657 10.4117 8.74185 10.4117C8.3392 10.4117 7.81998 10.4228 7.18421 10.445C6.54844 10.445 5.89148 10.445 5.21332 10.445V15.5676H0V2.29531C0 1.6522 0.13775 1.15324 0.413251 0.798428C0.688752 0.443613 1.25035 0.266206 2.09804 0.266206C2.41593 0.266206 2.89276 0.266206 3.52853 0.266206C4.1643 0.24403 4.89543 0.23294 5.72194 0.23294C6.54844 0.23294 7.39613 0.23294 8.26502 0.23294C9.1551 0.210765 10.0028 0.210765 10.8081 0.23294C11.6134 0.23294 12.3128 0.24403 12.9061 0.266206C13.5207 0.266206 13.9658 0.277293 14.2413 0.299469C15.3857 0.410349 16.2439 0.776252 16.8161 1.39718C17.3883 1.99593 17.6744 2.98276 17.6744 4.35767C17.6744 5.59953 17.5791 6.50874 17.3883 7.08532C17.2188 7.63972 16.9327 8.07215 16.53 8.38262C16.3817 8.49349 16.1804 8.5822 15.9261 8.64873C15.6718 8.71525 15.3857 8.74852 15.0678 8.74852V8.88157C15.2161 8.88157 15.3751 8.88157 15.5446 8.88157C15.7353 8.88157 15.8943 8.89266 16.0214 8.91484C16.8267 9.07007 17.3036 9.39162 17.4519 9.87949C17.6215 10.3674 17.7062 10.8774 17.7062 11.4096V14.3369C17.7062 14.7582 17.7486 15.0687 17.8334 15.2683C17.9181 15.4457 17.9711 15.5455 17.9923 15.5676H14.1141C13.5631 15.5676 13.1287 15.4789 12.8108 15.3015C12.5141 15.1241 12.3657 14.7471 12.3657 14.1705V11.9751C12.3657 11.2877 12.2174 10.8552 11.9207 10.6778C11.6452 10.5004 11.1472 10.4117 10.4266 10.4117H9.37762ZM5.21332 7.81713C5.44644 7.81713 5.79611 7.82822 6.26234 7.85039C6.74977 7.85039 7.27958 7.85039 7.85177 7.85039C8.42396 7.85039 8.94318 7.85039 9.40941 7.85039C9.89683 7.85039 10.2465 7.85039 10.4584 7.85039C10.967 7.85039 11.4121 7.68407 11.7935 7.35143C12.1962 6.99662 12.3975 6.34242 12.3975 5.38886C12.3975 4.72358 12.281 4.20244 12.0479 3.82545C11.8359 3.44846 11.4757 3.23779 10.967 3.19343C10.6704 3.12691 10.2677 3.09364 9.75908 3.09364C9.27166 3.09364 8.75245 3.09364 8.20144 3.09364C7.67164 3.09364 7.18421 3.10473 6.73917 3.12691C6.29413 3.12691 5.96565 3.12691 5.75373 3.12691C5.71134 3.12691 5.60538 3.16017 5.43584 3.2267C5.28749 3.29323 5.21332 3.45955 5.21332 3.72566V7.81713Z" fill="white"/>
</svg>
