<svg width="24" height="24" viewBox="0 0 24 24" fill="none" xmlns="http://www.w3.org/2000/svg">
<rect width="24" height="24" rx="4" fill="#0088CC"/>
<path d="M12.9197 10.8857C14.7345 8.92601 16.5453 6.96904 18.3654 5.00269C18.3413 5.00269 18.3305 5 18.3212 5C17.9094 5 17.4976 5 17.0871 5.00134C17.0616 5.00134 17.0322 5.01878 17.0134 5.0389C16.5117 5.57945 16.0101 6.11999 15.5098 6.66188C14.5561 7.69201 13.6038 8.7208 12.6501 9.75092C12.5442 9.86493 12.4395 9.9776 12.3295 10.0956C12.3094 10.0701 12.2933 10.0473 12.2759 10.0259C11.0365 8.36802 9.79583 6.71017 8.55646 5.05097C8.52963 5.01476 8.50146 5 8.45586 5C7.0059 5 5.55592 5 4.10597 5H4.03222C4.1516 5.15962 4.26153 5.3085 4.37286 5.45605C5.44456 6.88991 6.51767 8.32376 7.58938 9.75762C8.32978 10.7462 9.06747 11.7347 9.80922 12.7219C9.84275 12.7675 9.83469 12.789 9.80116 12.8265C8.97626 13.7158 8.15404 14.6051 7.33048 15.4944C6.23463 16.6774 5.14012 17.8605 4.04427 19.0435C4.03086 19.0583 4.02012 19.073 4 19.0972H4.07244C4.45471 19.0972 4.83565 19.0945 5.21792 19.0985C5.29035 19.0985 5.33726 19.077 5.38421 19.0247C6.38617 17.9396 7.38949 16.8558 8.39279 15.7721C8.98967 15.1269 9.58657 14.4831 10.1834 13.8379C10.2666 13.748 10.3484 13.6595 10.4356 13.5669C10.4517 13.5871 10.4651 13.6032 10.4772 13.6193C10.948 14.2483 11.4188 14.8774 11.8896 15.5078C12.7748 16.6908 13.6588 17.8739 14.5427 19.0583C14.5668 19.0905 14.5937 19.0998 14.6313 19.0998C16.0825 19.0998 17.5351 19.0998 18.9864 19.0998C19.0066 19.0998 19.0253 19.0985 19.0562 19.0972C17.0053 16.3555 14.9625 13.6246 12.917 10.8897L12.9197 10.8857ZM16.7572 18.1247C16.2126 18.1247 15.6667 18.1247 15.1221 18.1247C15.0805 18.1247 15.0551 18.1113 15.031 18.0778C13.3396 15.815 11.6468 13.5535 9.9554 11.2907C8.80053 9.7469 7.64703 8.20305 6.49216 6.66054C6.33523 6.4513 6.17964 6.24205 6.0227 6.0328C6.01063 6.01805 6.0012 6.00062 5.98243 5.97379H6.05218C6.69332 5.97379 7.33582 5.97379 7.97697 5.97379C8.01989 5.97379 8.04406 5.9872 8.0682 6.02073C9.57852 8.04209 11.0902 10.0621 12.6005 12.0821C13.4187 13.1766 14.2369 14.2698 15.0551 15.3643C15.7311 16.2683 16.4071 17.1724 17.0831 18.0764C17.0925 18.0898 17.1005 18.1019 17.1153 18.1247H16.7585H16.7572Z" fill="white"/>
</svg>
