<svg width="24" height="24" viewBox="0 0 24 24" fill="none" xmlns="http://www.w3.org/2000/svg">
<rect width="24" height="24" rx="4" fill="#0088CC"/>
<path d="M8.93251 11.8965C8.93251 10.2585 10.26 8.93101 11.898 8.93101C13.536 8.93101 14.8635 10.2585 14.8635 11.8965C14.8635 13.5345 13.536 14.862 11.898 14.862C10.26 14.862 8.93251 13.5345 8.93251 11.8965ZM7.329 11.8965C7.329 14.4195 9.37351 16.464 11.8965 16.464C14.4195 16.464 16.464 14.4195 16.464 11.8965C16.464 9.37351 14.4195 7.32902 11.8965 7.32902C9.37351 7.32902 7.329 9.37351 7.329 11.8965ZM15.5775 7.14752C15.5775 7.73702 16.056 8.2155 16.6455 8.2155C17.235 8.2155 17.7135 7.73702 17.7135 7.14752C17.7135 6.55802 17.235 6.0795 16.6455 6.0795C16.056 6.0795 15.5775 6.55802 15.5775 7.14752ZM8.3025 19.137C7.4355 19.098 6.96449 18.9525 6.651 18.831C6.2355 18.669 5.94 18.477 5.628 18.165C5.316 17.853 5.12401 17.5575 4.96201 17.142C4.84051 16.8285 4.69501 16.3575 4.65601 15.4905C4.61251 14.553 4.60351 14.271 4.60351 11.8965C4.60351 9.52201 4.61251 9.24001 4.65601 8.30251C4.69501 7.43551 4.84051 6.96451 4.96201 6.65101C5.12401 6.23551 5.316 5.94 5.628 5.628C5.94 5.3175 6.2355 5.12401 6.651 4.96201C6.96449 4.84051 7.4355 4.69501 8.3025 4.65601C9.24 4.61251 9.52201 4.60353 11.8965 4.60353C14.271 4.60353 14.553 4.61251 15.492 4.65601C16.359 4.69501 16.83 4.84051 17.1435 4.96201C17.559 5.12401 17.8545 5.316 18.1665 5.628C18.4785 5.94 18.6705 6.23551 18.8325 6.65101C18.954 6.96451 19.0995 7.43551 19.1385 8.30251C19.182 9.24001 19.1895 9.52201 19.1895 11.8965C19.1895 14.271 19.1805 14.553 19.1385 15.4905C19.0995 16.3575 18.954 16.8285 18.8325 17.142C18.6705 17.5575 18.4785 17.853 18.1665 18.165C17.8545 18.477 17.559 18.669 17.1435 18.831C16.83 18.9525 16.359 19.098 15.492 19.137C14.5545 19.1805 14.2725 19.1895 11.8965 19.1895C9.52051 19.1895 9.24 19.1805 8.3025 19.137ZM8.229 3.05402C7.2825 3.09752 6.63599 3.24752 6.06899 3.46652C5.48399 3.69302 4.98749 3.99753 4.49399 4.49253C3.99899 4.98753 3.6945 5.48253 3.468 6.06753C3.2475 6.63303 3.0975 7.27951 3.054 8.22751C3.0105 9.17701 3 9.47851 3 11.895C3 14.3115 3.0105 14.6145 3.054 15.5625C3.0975 16.509 3.2475 17.1555 3.468 17.721C3.6945 18.306 3.99899 18.8025 4.49399 19.296C4.98899 19.791 5.48399 20.094 6.06899 20.322C6.63449 20.5425 7.281 20.6925 8.229 20.736C9.1785 20.7795 9.48151 20.79 11.8965 20.79C14.3115 20.79 14.616 20.7795 15.564 20.736C16.5105 20.6925 17.157 20.5425 17.724 20.322C18.309 20.094 18.8055 19.791 19.299 19.296C19.794 18.801 20.097 18.306 20.325 17.721C20.5455 17.1555 20.6955 16.509 20.739 15.5625C20.7825 14.613 20.793 14.3115 20.793 11.895C20.793 9.47851 20.7825 9.17551 20.739 8.22751C20.6955 7.28101 20.5455 6.63453 20.325 6.06753C20.097 5.48253 19.794 4.98603 19.299 4.49253C18.804 3.99753 18.3075 3.69302 17.724 3.46652C17.1585 3.24602 16.512 3.09602 15.564 3.05402C14.6145 3.01052 14.313 3 11.8965 3C9.48001 3 9.1785 3.01052 8.229 3.05402Z" fill="white"/>
</svg>
