<svg width="415" height="36" viewBox="0 0 415 36" fill="none" xmlns="http://www.w3.org/2000/svg">
<path d="M373.324 35.0271V4.79014C373.324 3.04378 373.574 1.92112 374.074 1.42216C374.574 0.873303 375.748 0.598877 377.597 0.598877H389.215L405.556 22.603L406.005 24.3244V0.598877H415C414.9 0.698668 414.825 1.02299 414.775 1.57185C414.775 2.07081 414.775 2.64461 414.775 3.29326C414.775 3.89201 414.775 4.44086 414.775 4.93982V31.3597C414.775 33.0063 414.425 34.0292 413.726 34.4283C413.026 34.8275 411.727 35.0271 409.828 35.0271H399.259L382.544 12.5739L382.169 10.7028V35.0271H373.324Z" fill="#0088CC"/>
<path d="M277.363 0.598877H318.739V7.1103H304.272V30.9855C304.272 32.5822 304.023 33.6549 303.523 34.2038C303.023 34.7527 301.899 35.0271 300.15 35.0271H291.905V7.1103H277.363V0.598877Z" fill="#0088CC"/>
<path fill-rule="evenodd" clip-rule="evenodd" d="M334.069 34.7276C336.868 35.2764 340.266 35.5509 344.263 35.5509C348.211 35.5509 351.584 35.3014 354.382 34.8024C357.231 34.2536 359.554 33.3305 361.353 32.0332C363.152 30.686 364.476 28.8648 365.326 26.5696C366.175 24.2744 366.6 21.3555 366.6 17.8129C366.6 14.2702 366.175 11.3513 365.326 9.05612C364.526 6.7609 363.227 4.96465 361.428 3.66735C359.679 2.32016 357.406 1.37214 354.607 0.823283C351.809 0.274427 348.436 0 344.488 0C340.54 0 337.142 0.274427 334.294 0.823283C331.496 1.37214 329.172 2.32016 327.323 3.66735C325.524 4.96465 324.2 6.7609 323.351 9.05612C322.501 11.3014 322.076 14.2203 322.076 17.8129C322.076 21.3056 322.476 24.1995 323.276 26.4948C324.125 28.79 325.424 30.6112 327.173 31.9584C328.972 33.2557 331.271 34.1787 334.069 34.7276ZM353.434 5.40141H335.254C334.791 5.40141 333.98 5.40141 333.286 5.83718C332.475 6.05507 331.896 6.59979 331.549 7.25344C331.201 7.9071 330.97 8.56076 331.086 9.32336C331.086 10.0206 331.382 10.5087 331.619 10.8991C331.678 10.9967 331.734 11.0882 331.78 11.1754L343.012 29.6957C343.36 30.1315 343.823 30.3494 344.286 30.3494C344.865 30.3494 345.328 30.1315 345.56 29.6957L357.023 11.1754C357.486 10.5217 357.602 9.86808 357.602 9.21442C357.602 8.45182 357.371 7.79816 357.023 7.25344C356.908 7.25344 356.908 7.1445 356.908 7.1445C356.676 6.70873 356.213 6.16401 355.402 5.83718C354.707 5.51035 354.128 5.40141 353.434 5.40141ZM335.254 8.01604H342.896V23.9217L334.212 9.75914C334.114 9.57496 334.037 9.44916 333.98 9.35707C333.903 9.23127 333.865 9.16838 333.865 9.10548C333.865 8.88759 333.865 8.6697 333.98 8.56076C334.096 8.34287 334.212 8.23393 334.444 8.12499C334.559 8.01605 334.791 8.01604 335.254 8.01604ZM345.676 24.0307V8.12499H353.318C353.665 8.12499 353.897 8.12499 354.128 8.23393L354.244 8.34288C354.316 8.34288 354.343 8.38449 354.381 8.442C354.404 8.47754 354.432 8.51915 354.476 8.56076C354.592 8.6697 354.592 8.88759 354.592 9.10548C354.592 9.32336 354.592 9.54125 354.476 9.75914L345.676 24.0307Z" fill="#0088CC"/>
<path d="M233.297 0.598877H274.673V7.1103H260.207V30.9855C260.207 32.5822 259.957 33.6549 259.457 34.2038C258.957 34.7527 257.833 35.0271 256.084 35.0271H247.839V7.1103H233.297V0.598877Z" fill="url(#paint0_linear_1_111)"/>
<path d="M190.912 35.0271V4.49076C190.912 2.89409 191.187 1.84627 191.737 1.34732C192.286 0.848356 193.361 0.598877 194.96 0.598877H229.589V7.03546H203.205V14.2205H227.191V20.5822H203.205V28.5905H229.589V35.0271H190.912Z" fill="url(#paint1_linear_1_111)"/>
<path d="M177.868 36C176.419 36 175.07 35.8503 173.82 35.5509C172.571 35.2516 171.422 34.7277 170.373 33.9792C170.023 33.6798 169.573 33.2807 169.023 32.7817C168.474 32.2828 167.874 31.7339 167.224 31.1352C166.575 30.4865 165.9 29.8379 165.201 29.1892C164.551 28.5406 163.926 27.9169 163.327 27.3181C162.727 26.7194 162.177 26.1955 161.678 25.7464C161.078 25.0977 160.553 24.5988 160.104 24.2495C159.704 23.9002 159.179 23.526 158.529 23.1269L156.431 22.6029V35.027H144.138V4.34103C144.138 3.54269 144.213 2.8691 144.363 2.32024C144.513 1.77139 144.838 1.34727 145.337 1.04789C145.887 0.748518 146.811 0.598832 148.111 0.598832C149.51 0.598832 150.884 0.598832 152.233 0.598832C153.632 0.598832 155.032 0.598832 156.431 0.598832C156.431 1.34727 156.431 2.27034 156.431 3.36806C156.431 4.41587 156.431 5.53853 156.431 6.73603C156.431 7.88364 156.431 9.0063 156.431 10.104C156.431 11.1518 156.431 12.025 156.431 12.7235L158.529 12.2745C158.979 12.1248 159.354 11.9252 159.654 11.6757C160.004 11.3764 160.428 11.0021 160.928 10.5531C161.528 9.85453 162.352 9.03125 163.402 8.08322C164.451 7.0853 165.525 6.08738 166.625 5.08947C167.774 4.04165 168.748 3.16847 169.548 2.46993C170.697 1.5718 171.947 0.973049 173.296 0.673673C174.695 0.374297 176.344 0.224609 178.243 0.224609C179.692 0.224609 180.891 0.299454 181.841 0.449143C182.79 0.548935 183.79 0.698624 184.839 0.898206C184.739 0.948103 184.414 1.22253 183.865 1.72149C183.365 2.22045 182.79 2.7693 182.141 3.36806C181.541 3.91691 181.066 4.36597 180.716 4.71524C178.918 6.06244 177.019 7.48447 175.02 8.98135C173.021 10.4782 171.072 11.9751 169.173 13.472C167.324 14.9689 165.65 16.4158 164.151 17.8129L164.226 14.3701C165.525 15.4179 167 16.6404 168.649 18.0375C170.298 19.4346 172.072 20.9564 173.97 22.6029C175.869 24.1996 177.818 25.8462 179.817 27.5426C181.866 29.2391 183.915 30.8607 185.963 32.4075C185.714 32.7568 185.214 33.2058 184.464 33.7547C183.765 34.3035 182.865 34.8025 181.766 35.2516C180.666 35.7505 179.367 36 177.868 36Z" fill="url(#paint2_linear_1_111)"/>
<path d="M96.5842 17.8129C96.5842 14.3202 96.984 11.4512 97.7835 9.20588C98.5831 6.91067 99.9323 5.11441 101.831 3.81712C103.73 2.51982 106.254 1.59675 109.402 1.04789C112.6 0.499037 116.547 0.224609 121.245 0.224609C123.244 0.224609 125.117 0.299454 126.866 0.449143C128.665 0.548935 130.539 0.748518 132.488 1.04789C134.587 1.29737 135.961 1.79633 136.611 2.54477C137.26 3.29321 137.585 4.31608 137.585 5.61337V9.43041C136.136 8.88156 134.437 8.43249 132.488 8.08322C130.589 7.73395 128.69 7.48447 126.791 7.33478C124.893 7.1352 123.219 7.03541 121.769 7.03541C118.821 7.03541 116.398 7.28489 114.499 7.78385C112.65 8.28281 111.301 9.30567 110.451 10.8524C109.602 12.3992 109.177 14.7443 109.177 17.8878C109.177 20.8815 109.602 23.1518 110.451 24.6986C111.301 26.2453 112.725 27.2932 114.724 27.842C116.722 28.3909 119.371 28.6653 122.669 28.6653C124.068 28.6653 125.542 28.5905 127.091 28.4408C128.69 28.2412 130.339 27.9917 132.038 27.6923C133.787 27.393 135.636 27.0187 137.585 26.5697V30.0873C137.585 31.2848 137.235 32.2828 136.536 33.0811C135.836 33.8295 134.412 34.3534 132.263 34.6528C130.364 34.9522 128.465 35.1518 126.567 35.2516C124.718 35.3514 122.794 35.4013 120.795 35.4013C116.048 35.4013 112.1 35.1518 108.952 34.6528C105.854 34.104 103.38 33.1809 101.531 31.8836C99.7324 30.5863 98.4581 28.815 97.7086 26.5697C96.959 24.2745 96.5842 21.3555 96.5842 17.8129Z" fill="url(#paint3_linear_1_111)"/>
<path d="M69.5814 35.5509C65.5837 35.5509 62.1857 35.2764 59.3874 34.7276C56.589 34.1787 54.2904 33.2557 52.4914 31.9584C50.7424 30.6112 49.4432 28.79 48.5937 26.4948C47.7942 24.1995 47.3944 21.3056 47.3944 17.8129C47.3944 14.2203 47.8192 11.3014 48.6687 9.05612C49.5182 6.7609 50.8424 4.96465 52.6413 3.66735C54.4902 2.32016 56.8139 1.37214 59.6122 0.823283C62.4606 0.274427 65.8586 0 69.8062 0C73.7539 0 77.1269 0.274427 79.9253 0.823283C82.7236 1.37214 84.9973 2.32016 86.7463 3.66735C88.5452 4.96465 89.8445 6.7609 90.644 9.05612C91.4935 11.3513 91.9182 14.2702 91.9182 17.8129C91.9182 21.3555 91.4935 24.2744 90.644 26.5696C89.7945 28.8648 88.4703 30.686 86.6713 32.0332C84.8724 33.3305 82.5488 34.2536 79.7004 34.8024C76.9021 35.3014 73.529 35.5509 69.5814 35.5509ZM69.6563 29.1891C71.3054 29.1891 72.7295 29.0394 73.9288 28.7401C75.1781 28.3908 76.1775 27.792 76.9271 26.9438C77.7266 26.0956 78.3012 24.948 78.651 23.501C79.0508 22.0041 79.2507 20.1081 79.2507 17.8129C79.2507 15.4677 79.0508 13.5717 78.651 12.1247C78.3012 10.6278 77.7266 9.48023 76.9271 8.68189C76.1775 7.83366 75.1781 7.25986 73.9288 6.96048C72.7295 6.61121 71.3054 6.43658 69.6563 6.43658C67.9573 6.43658 66.4832 6.61121 65.2339 6.96048C64.0346 7.25986 63.0602 7.83366 62.3106 8.68189C61.5611 9.48023 60.9864 10.6278 60.5867 12.1247C60.1869 13.5717 59.987 15.4677 59.987 17.8129C59.987 20.1081 60.1869 22.0041 60.5867 23.501C60.9864 24.948 61.5611 26.0956 62.3106 26.9438C63.0602 27.792 64.0346 28.3908 65.2339 28.7401C66.4832 29.0394 67.9573 29.1891 69.6563 29.1891Z" fill="url(#paint4_linear_1_111)"/>
<path d="M22.112 23.4262C22.112 23.4262 21.6123 23.4262 20.6129 23.4262C19.6634 23.4262 18.4392 23.4512 16.94 23.5011C15.4409 23.5011 13.8918 23.5011 12.2928 23.5011V35.0271H0V5.16432C0 3.71734 0.324809 2.59468 0.974427 1.79634C1.62405 0.998007 2.94827 0.598841 4.94709 0.598841C5.69665 0.598841 6.82099 0.598841 8.32011 0.598841C9.81923 0.548944 11.5432 0.523994 13.4921 0.523994C15.4409 0.523994 17.4397 0.523994 19.4885 0.523994C21.5873 0.474098 23.5861 0.474098 25.485 0.523994C27.3839 0.523994 29.0329 0.548944 30.4321 0.598841C31.8813 0.598841 32.9306 0.623787 33.5803 0.673683C36.2787 0.923162 38.3025 1.74645 39.6517 3.14353C41.0009 4.49072 41.6755 6.71109 41.6755 9.80464C41.6755 12.5988 41.4506 14.6446 41.0009 15.9418C40.6011 17.1892 39.9265 18.1622 38.9771 18.8608C38.6273 19.1102 38.1526 19.3098 37.5529 19.4595C36.9533 19.6092 36.2787 19.684 35.5291 19.684V19.9834C35.8789 19.9834 36.2537 19.9834 36.6535 19.9834C37.1032 19.9834 37.478 20.0084 37.7778 20.0583C39.6767 20.4075 40.801 21.131 41.1508 22.2287C41.5506 23.3264 41.7505 24.4741 41.7505 25.6716V32.2578C41.7505 33.2058 41.8504 33.9044 42.0503 34.3535C42.2502 34.7526 42.3751 34.9772 42.4251 35.0271H33.2804C31.9812 35.0271 30.9568 34.8275 30.2072 34.4283C29.5077 34.0291 29.1579 33.1809 29.1579 31.8836V26.9439C29.1579 25.3971 28.8081 24.4242 28.1085 24.025C27.4589 23.6258 26.2845 23.4262 24.5855 23.4262H22.112ZM12.2928 17.5884C12.8425 17.5884 13.667 17.6134 14.7663 17.6633C15.9156 17.6633 17.1649 17.6633 18.5141 17.6633C19.8633 17.6633 21.0876 17.6633 22.187 17.6633C23.3363 17.6633 24.1608 17.6633 24.6605 17.6633C25.8598 17.6633 26.9092 17.289 27.8087 16.5406C28.7581 15.7423 29.2328 14.2703 29.2328 12.1248C29.2328 10.6279 28.958 9.45537 28.4083 8.60714C27.9086 7.75891 27.0591 7.2849 25.8598 7.18511C25.1602 7.03542 24.2108 6.96057 23.0115 6.96057C21.8621 6.96057 20.6379 6.96057 19.3386 6.96057C18.0894 6.96057 16.94 6.98552 15.8907 7.03542C14.8413 7.03542 14.0667 7.03542 13.567 7.03542C13.4671 7.03542 13.2172 7.11026 12.8175 7.25995C12.4677 7.40964 12.2928 7.78386 12.2928 8.38261V17.5884Z" fill="url(#paint5_linear_1_111)"/>
<defs>
<linearGradient id="paint0_linear_1_111" x1="436.545" y1="35.0272" x2="436.545" y2="-3.82727" gradientUnits="userSpaceOnUse">
<stop stop-color="#FCFCFC"/>
<stop offset="1" stop-color="#359DC6"/>
</linearGradient>
<linearGradient id="paint1_linear_1_111" x1="380.905" y1="35.0272" x2="380.905" y2="-3.82727" gradientUnits="userSpaceOnUse">
<stop stop-color="#FCFCFC"/>
<stop offset="1" stop-color="#359DC6"/>
</linearGradient>
<linearGradient id="paint2_linear_1_111" x1="349.595" y1="36.0002" x2="349.595" y2="-4.37474" gradientUnits="userSpaceOnUse">
<stop stop-color="#FCFCFC"/>
<stop offset="1" stop-color="#359DC6"/>
</linearGradient>
<linearGradient id="paint3_linear_1_111" x1="297.991" y1="35.4014" x2="297.991" y2="-4.29776" gradientUnits="userSpaceOnUse">
<stop stop-color="#FCFCFC"/>
<stop offset="1" stop-color="#359DC6"/>
</linearGradient>
<linearGradient id="paint4_linear_1_111" x1="266.107" y1="35.551" x2="266.107" y2="-4.57048" gradientUnits="userSpaceOnUse">
<stop stop-color="#FCFCFC"/>
<stop offset="1" stop-color="#359DC6"/>
</linearGradient>
<linearGradient id="paint5_linear_1_111" x1="208.402" y1="35.0272" x2="208.402" y2="-3.95401" gradientUnits="userSpaceOnUse">
<stop stop-color="#FCFCFC"/>
<stop offset="1" stop-color="#359DC6"/>
</linearGradient>
</defs>
</svg>
