<svg width="24" height="24" viewBox="0 0 24 24" fill="none" xmlns="http://www.w3.org/2000/svg">
<rect width="24" height="24" rx="4" fill="#0088CC"/>
<path d="M4.08947 11.3942L14.665 7.03641C15.7097 6.58241 19.249 5.12934 19.249 5.12934C19.249 5.12934 20.8829 4.49462 20.7462 6.03732C20.7007 6.67203 20.3378 8.89646 19.9749 11.3016L18.8406 18.4274C18.8406 18.4274 18.7495 19.4706 17.9782 19.6528C17.2068 19.8349 15.9359 19.0166 15.7082 18.8359C15.526 18.6992 12.304 16.657 11.1242 15.6594C10.8068 15.3861 10.4439 14.8425 11.1697 14.2063C12.8035 12.7077 14.7547 10.8476 15.9359 9.66783C16.481 9.12275 17.0246 7.85184 14.7547 9.39454L8.35466 13.7068C8.35466 13.7068 7.62887 14.1607 6.26688 13.7523C4.90637 13.3438 3.31665 12.7987 3.31665 12.7987C3.31665 12.7987 2.22794 12.1185 4.08799 11.3912L4.08947 11.3942Z" fill="white"/>
</svg>
