<svg width="24" height="24" viewBox="0 0 24 24" fill="none" xmlns="http://www.w3.org/2000/svg">
<rect width="24" height="24" rx="4" fill="#0088CC"/>
<path d="M21.108 7.0351C20.8948 6.23419 20.2688 5.60275 19.4733 5.38953C18.0314 5.00001 12.2474 5 12.2474 5C12.2474 5 6.46333 5.00001 5.02142 5.38953C4.22597 5.60411 3.59864 6.23419 3.3868 7.0351C3.00001 8.48658 3 11.5152 3 11.5152C3 11.5152 3.00001 14.544 3.3868 15.9954C3.60001 16.7963 4.22597 17.4278 5.02142 17.641C6.46333 18.0305 12.2474 18.0305 12.2474 18.0305C12.2474 18.0305 18.0314 18.0305 19.4733 17.641C20.2688 17.4264 20.8961 16.7963 21.108 15.9954C21.4948 14.544 21.4948 11.5152 21.4948 11.5152C21.4948 11.5152 21.4948 8.48658 21.108 7.0351ZM10.3558 14.2651V8.76538L15.19 11.5152L10.3558 14.2651Z" fill="white"/>
</svg>
